<svg xmlns="http://www.w3.org/2000/svg" xmlns:xlink="http://www.w3.org/1999/xlink" width="48" height="36" x="0" y="0" enable-background="new 14 17 48 36" version="1.1" viewBox="14 17 48 36" xml:space="preserve"><style>.style0{fill:#fff}</style><path d="M18.2 17h39.6c2.099 0 4.2 2.1 4.2 4.2v27.6c0 2.099-2.102 4.2-4.2 4.2H18.2c-2.099 0-4.2-2.102-4.2-4.2 V21.2C14 19.1 16.1 17 18.2 17z M18.8 45.8c0 1.6 0.8 2.4 2.4 2.4h33.6c1.574 0 2.4-0.826 2.4-2.4V24.2L41.188 40.6 c-1.483 1.484-3.89 1.484-5.374 0L18.8 24.2V45.8z M22.4 21.8l14.085 14.086c1.113 1.1 2.9 1.1 4 0L54.8 21.8H22.4z" class="style0"/></svg>